{"title":"The Bourne Legacy (HD 1080p).m4v","uid":8132544,"size":19016063587,"categoryP":"video","categoryS":"hd___movies","magnet":"?xt=urn:btih:686e54aa03a97e31baec982d1ddaebcc611c2449&amp;dn=The+Bourne+Legacy+%28HD+1080p%29.m4v&amp;tr=udp%3A%2F%2Ftracker.openbittorrent.com%3A80&amp;tr=udp%3A%2F%2Fopen.demonii.com%3A1337&amp;tr=udp%3A%2F%2Ftracker.coppersurfer.tk%3A6969&amp;tr=udp%3A%2F%2Fexodus.desync.com%3A6969","seeders":2,"leechers":0,"uploader":"arctictpb","files":1,"time":1360638814,"description":"General\nComplete name                            : The Bourne Legacy (HD 1080p).m4v\nFormat                                   : MPEG-4\nFormat profile                           : Base Media / Version 2\nCodec ID                                 : mp42\nFile size                                : 17.7 GiB\nDuration                                 : 2h 15mn\nOverall bit rate mode                    : Variable\nOverall bit rate                         : 18.8 Mbps\nMovie name                               : The Bourne Legacy\nPerformer                                : Jeremy Renner, Rachel Weisz, Edward Norton, Joan Allen, Donna Murphy, Albert Finney, Oscar Isaac, Scott Glenn, Corey Stoll, David Strathairn, Stacy Keach, Michael Papajohn, Dennis Boutsikaris, Sheena Colette, Louis Ozawa Changchien, Michael Chernus, Corey Johnson, Jennifer Kim, Elizabeth Marvel, Shane Jacobson, Page Leong, Robert Christopher Riley, Zeljko Ivanek\nGenre                                    : Action, Thriller\nRecorded date                            : 2012-08-10\nEncoded date                             : UTC 2012-12-28 03:38:34\nTagged date                              : UTC 2012-12-29 21:46:06\nWriting application                      : HandBrake 5106svn 2012122501\nCover                                    : Yes\ndesc                                     : A story centered on new CIA operative, Aaron Cross as he experiences life-or-death stakes that have been triggered by the previous events of Jason Bourne.\n\nVideo #1\nID                                       : 1\nFormat                                   : AVC\nFormat/Info                              : Advanced Video Codec\nFormat profile                           : &lt;a class=&quot;__cf_email__&quot; href=&quot;/cdn-cgi/l/email-protection&quot; data-cfemail=&quot;266e4f414e666a120816&quot;&gt;[email&amp;#160;protected]&lt;/a&gt;&lt;script cf-hash='f9e31' type=&quot;text/javascript&quot;&gt;\n/* &lt;![CDATA[ */!function(){try{var t=&quot;currentScript&quot;in document?document.currentScript:function(){for(var t=document.getElementsByTagName(&quot;script&quot;),e=t.length;e--;)if(t[e].getAttribute(&quot;cf-hash&quot;))return t[e]}();if(t&amp;&amp;t.previousSibling){var e,r,n,i,c=t.previousSibling,a=c.getAttribute(&quot;data-cfemail&quot;);if(a){for(e=&quot;&quot;,r=parseInt(a.substr(0,2),16),n=2;a.length-n;n+=2)i=parseInt(a.substr(n,2),16)^r,e+=String.fromCharCode(i);e=document.createTextNode(e),c.parentNode.replaceChild(e,c)}}}catch(u){}}();/* ]]&gt; */&lt;/script&gt;\nFormat settings, CABAC                   : Yes\nFormat settings, ReFrames                : 4 frames\nCodec ID                                 : avc1\nCodec ID/Info                            : Advanced Video Coding\nDuration                                 : 2h 15mn\nBit rate mode                            : Variable\nBit rate                                 : 17.9 Mbps\nWidth                                    : 1 920 pixels\nHeight                                   : 800 pixels\nDisplay aspect ratio                     : 2.40:1\nFrame rate mode                          : Variable\nFrame rate                               : 23.976 fps\nMinimum frame rate                       : 19.561 fps\nMaximum frame rate                       : 90 000.000 fps\nColor space                              : YUV\nChroma subsampling                       : 4:2:0\nBit depth                                : 8 bits\nScan type                                : Progressive\nBits/(Pixel*Frame)                       : 0.487\nStream size                              : 16.9 GiB (96%)\nWriting library                          : x264 core 128\nEncoding settings                        : cabac=1 / ref=4 / deblock=1:0:0 / analyse=0x3:0x133 / me=umh / subme=10 / psy=1 / psy_rd=1.00:0.15 / mixed_ref=1 / me_range=32 / chroma_me=1 / trellis=2 / 8x8dct=1 / cqm=0 / deadzone=21,11 / fast_pskip=1 / chroma_qp_offset=-3 / threads=12 / lookahead_threads=2 / sliced_threads=0 / nr=0 / decimate=1 / interlaced=0 / bluray_compat=0 / constrained_intra=0 / bframes=4 / b_pyramid=2 / b_adapt=2 / b_bias=0 / direct=3 / weightb=1 / open_gop=0 / weightp=2 / keyint=300 / keyint_min=30 / scenecut=40 / intra_refresh=0 / rc_lookahead=60 / rc=crf / mbtree=1 / crf=18.0 / qcomp=0.60 / qpmin=4 / qpmax=69 / qpstep=4 / ip_ratio=1.40 / aq=1:1.00\nLanguage                                 : English\nEncoded date                             : UTC 2012-12-28 03:38:34\nTagged date                              : UTC 2012-12-28 13:43:04\nColor primaries                          : BT.709\nTransfer characteristics                 : BT.709\nMatrix coefficients                      : BT.709\n\nAudio #1\nID                                       : 2\nFormat                                   : AAC\nFormat/Info                              : Advanced Audio Codec\nFormat profile                           : LC\nCodec ID                                 : 40\nDuration                                 : 2h 15mn\nBit rate mode                            : Variable\nBit rate                                 : 197 Kbps\nMaximum bit rate                         : 327 Kbps\nChannel(s)                               : 2 channels\nChannel positions                        : Front: L R\nSampling rate                            : 48.0 KHz\nCompression mode                         : Lossy\nDelay relative to video                  : 83ms\nStream size                              : 190 MiB (1%)\nLanguage                                 : English\nEncoded date                             : UTC 2012-12-28 03:38:34\nTagged date                              : UTC 2012-12-28 13:43:04\n\nAudio #2\nID                                       : 3\nFormat                                   : AC-3\nFormat/Info                              : Audio Coding 3\nMode extension                           : CM (complete main)\nFormat settings, Endianness              : Big\nCodec ID                                 : ac-3\nDuration                                 : 2h 15mn\nBit rate mode                            : Constant\nBit rate                                 : 640 Kbps\nChannel(s)                               : 6 channels\nChannel positions                        : Front: L C R, Side: L R, LFE\nSampling rate                            : 48.0 KHz\nBit depth                                : 16 bits\nCompression mode                         : Lossy\nDelay relative to video                  : 83ms\nStream size                              : 618 MiB (3%)\nLanguage                                 : English\nEncoded date                             : UTC 2012-12-28 03:38:34\nTagged date                              : UTC 2012-12-28 13:43:04","torrent":{"xt":"urn:btih:686e54aa03a97e31baec982d1ddaebcc611c2449","amp;dn":"The+Bourne+Legacy+%28HD+1080p%29.m4v","amp;tr":["udp%3A%2F%2Ftracker.openbittorrent.com%3A80","udp%3A%2F%2Fopen.demonii.com%3A1337","udp%3A%2F%2Ftracker.coppersurfer.tk%3A6969","udp%3A%2F%2Fexodus.desync.com%3A6969"],"infoHash":"686e54aa03a97e31baec982d1ddaebcc611c2449","infoHashBuffer":{"type":"Buffer","data":[104,110,84,170,3,169,126,49,186,236,152,45,29,218,235,204,97,28,36,73]},"announce":[],"urlList":[]}}